<svg width="123" height="50" viewBox="0 0 123 50" fill="none" xmlns="http://www.w3.org/2000/svg">
<g clip-path="url(#clip0_5_164)">
<path d="M40.9727 4.86719C42.3789 4.86719 43.5391 5.04297 44.4531 5.39453C45.375 5.73828 46.0625 6.26562 46.5156 6.97656C46.9688 7.6875 47.1953 8.59375 47.1953 9.69531C47.1953 10.6016 47.0312 11.3594 46.7031 11.9688C46.375 12.5703 45.9453 13.0586 45.4141 13.4336C44.8828 13.8086 44.3164 14.0977 43.7148 14.3008L48.4141 22H46.0938L41.8984 14.8516H38.3359V22H36.3438V4.86719H40.9727ZM40.8555 6.58984H38.3359V13.1641H41.0547C42.4531 13.1641 43.4805 12.8789 44.1367 12.3086C44.8008 11.7383 45.1328 10.8984 45.1328 9.78906C45.1328 8.625 44.7812 7.80078 44.0781 7.31641C43.3828 6.83203 42.3086 6.58984 40.8555 6.58984ZM55.8086 8.92188C56.9023 8.92188 57.8398 9.16406 58.6211 9.64844C59.4023 10.1328 60 10.8125 60.4141 11.6875C60.8281 12.5547 61.0352 13.5703 61.0352 14.7344V15.9414H52.1641C52.1875 17.4492 52.5625 18.5977 53.2891 19.3867C54.0156 20.1758 55.0391 20.5703 56.3594 20.5703C57.1719 20.5703 57.8906 20.4961 58.5156 20.3477C59.1406 20.1992 59.7891 19.9805 60.4609 19.6914V21.4023C59.8125 21.6914 59.168 21.9023 58.5273 22.0352C57.8945 22.168 57.1445 22.2344 56.2773 22.2344C55.043 22.2344 53.9648 21.9844 53.043 21.4844C52.1289 20.9766 51.418 20.2344 50.9102 19.2578C50.4023 18.2812 50.1484 17.0859 50.1484 15.6719C50.1484 14.2891 50.3789 13.0938 50.8398 12.0859C51.3086 11.0703 51.9648 10.2891 52.8086 9.74219C53.6602 9.19531 54.6602 8.92188 55.8086 8.92188ZM55.7852 10.5156C54.7461 10.5156 53.918 10.8555 53.3008 11.5352C52.6836 12.2148 52.3164 13.1641 52.1992 14.3828H58.9961C58.9883 13.6172 58.8672 12.9453 58.6328 12.3672C58.4062 11.7812 58.0586 11.3281 57.5898 11.0078C57.1211 10.6797 56.5195 10.5156 55.7852 10.5156ZM67.1641 22L62.2891 9.15625H64.375L67.1992 16.9258C67.3945 17.457 67.5938 18.043 67.7969 18.6836C68 19.3242 68.1406 19.8398 68.2188 20.2305H68.3008C68.3945 19.8398 68.5508 19.3242 68.7695 18.6836C68.9883 18.0352 69.1875 17.4492 69.3672 16.9258L72.1914 9.15625H74.2773L69.3906 22H67.1641ZM87.4141 15.5547C87.4141 16.6094 87.2773 17.5508 87.0039 18.3789C86.7305 19.207 86.3359 19.9062 85.8203 20.4766C85.3047 21.0469 84.6797 21.4844 83.9453 21.7891C83.2188 22.0859 82.3945 22.2344 81.4727 22.2344C80.6133 22.2344 79.8242 22.0859 79.1055 21.7891C78.3945 21.4844 77.7773 21.0469 77.2539 20.4766C76.7383 19.9062 76.3359 19.207 76.0469 18.3789C75.7656 17.5508 75.625 16.6094 75.625 15.5547C75.625 14.1484 75.8633 12.9531 76.3398 11.9688C76.8164 10.9766 77.4961 10.2227 78.3789 9.70703C79.2695 9.18359 80.3281 8.92188 81.5547 8.92188C82.7266 8.92188 83.75 9.18359 84.625 9.70703C85.5078 10.2305 86.1914 10.9883 86.6758 11.9805C87.168 12.9648 87.4141 14.1562 87.4141 15.5547ZM77.6406 15.5547C77.6406 16.5859 77.7773 17.4805 78.0508 18.2383C78.3242 18.9961 78.7461 19.582 79.3164 19.9961C79.8867 20.4102 80.6211 20.6172 81.5195 20.6172C82.4102 20.6172 83.1406 20.4102 83.7109 19.9961C84.2891 19.582 84.7148 18.9961 84.9883 18.2383C85.2617 17.4805 85.3984 16.5859 85.3984 15.5547C85.3984 14.5312 85.2617 13.6484 84.9883 12.9062C84.7148 12.1562 84.293 11.5781 83.7227 11.1719C83.1523 10.7656 82.4141 10.5625 81.5078 10.5625C80.1719 10.5625 79.1914 11.0039 78.5664 11.8867C77.9492 12.7695 77.6406 13.9922 77.6406 15.5547ZM92.7344 22H90.7773V3.76562H92.7344V22ZM100.996 20.6406C101.316 20.6406 101.645 20.6133 101.98 20.5586C102.316 20.5039 102.59 20.4375 102.801 20.3594V21.8711C102.574 21.9727 102.258 22.0586 101.852 22.1289C101.453 22.1992 101.062 22.2344 100.68 22.2344C100 22.2344 99.3828 22.1172 98.8281 21.8828C98.2734 21.6406 97.8281 21.2344 97.4922 20.6641C97.1641 20.0938 97 19.3047 97 18.2969V10.6797H95.1719V9.73047L97.0117 8.96875L97.7852 6.17969H98.957V9.15625H102.719V10.6797H98.957V18.2383C98.957 19.043 99.1406 19.6445 99.5078 20.043C99.8828 20.4414 100.379 20.6406 100.996 20.6406Z" fill="#222222"/>
<path d="M38.3359 45H36.3438V27.8672H45.8828V29.625H38.3359V35.9062H45.4258V37.6523H38.3359V45ZM53.2539 31.9453C54.7852 31.9453 55.9219 32.2891 56.6641 32.9766C57.4062 33.6641 57.7773 34.7617 57.7773 36.2695V45H56.3594L55.9844 43.1016H55.8906C55.5312 43.5703 55.1562 43.9648 54.7656 44.2852C54.375 44.5977 53.9219 44.8359 53.4062 45C52.8984 45.1562 52.2734 45.2344 51.5312 45.2344C50.75 45.2344 50.0547 45.0977 49.4453 44.8242C48.8438 44.5508 48.3672 44.1367 48.0156 43.582C47.6719 43.0273 47.5 42.3242 47.5 41.4727C47.5 40.1914 48.0078 39.207 49.0234 38.5195C50.0391 37.832 51.5859 37.457 53.6641 37.3945L55.8789 37.3008V36.5156C55.8789 35.4062 55.6406 34.6289 55.1641 34.1836C54.6875 33.7383 54.0156 33.5156 53.1484 33.5156C52.4766 33.5156 51.8359 33.6133 51.2266 33.8086C50.6172 34.0039 50.0391 34.2344 49.4922 34.5L48.8945 33.0234C49.4727 32.7266 50.1367 32.4727 50.8867 32.2617C51.6367 32.0508 52.4258 31.9453 53.2539 31.9453ZM55.8555 38.6719L53.8984 38.7539C52.2969 38.8164 51.168 39.0781 50.5117 39.5391C49.8555 40 49.5273 40.6523 49.5273 41.4961C49.5273 42.2305 49.75 42.7734 50.1953 43.125C50.6406 43.4766 51.2305 43.6523 51.9648 43.6523C53.1055 43.6523 54.0391 43.3359 54.7656 42.7031C55.4922 42.0703 55.8555 41.1211 55.8555 39.8555V38.6719ZM70.0938 41.4844C70.0938 42.3047 69.8867 42.9961 69.4727 43.5586C69.0664 44.1133 68.4805 44.5312 67.7148 44.8125C66.957 45.0938 66.0508 45.2344 64.9961 45.2344C64.0977 45.2344 63.3203 45.1641 62.6641 45.0234C62.0078 44.8828 61.4336 44.6836 60.9414 44.4258V42.6328C61.4648 42.8906 62.0898 43.125 62.8164 43.3359C63.543 43.5469 64.2852 43.6523 65.043 43.6523C66.1523 43.6523 66.957 43.4727 67.457 43.1133C67.957 42.7539 68.207 42.2656 68.207 41.6484C68.207 41.2969 68.1055 40.9883 67.9023 40.7227C67.707 40.4492 67.375 40.1875 66.9062 39.9375C66.4375 39.6797 65.7891 39.3984 64.9609 39.0938C64.1406 38.7812 63.4297 38.4727 62.8281 38.168C62.2344 37.8555 61.7734 37.4766 61.4453 37.0312C61.125 36.5859 60.9648 36.0078 60.9648 35.2969C60.9648 34.2109 61.4023 33.3789 62.2773 32.8008C63.1602 32.2148 64.3164 31.9219 65.7461 31.9219C66.5195 31.9219 67.2422 32 67.9141 32.1562C68.5938 32.3047 69.2266 32.5078 69.8125 32.7656L69.1562 34.3242C68.625 34.0977 68.0586 33.9062 67.457 33.75C66.8555 33.5938 66.2422 33.5156 65.6172 33.5156C64.7188 33.5156 64.0273 33.6641 63.543 33.9609C63.0664 34.2578 62.8281 34.6641 62.8281 35.1797C62.8281 35.5781 62.9375 35.9062 63.1562 36.1641C63.3828 36.4219 63.7422 36.6641 64.2344 36.8906C64.7266 37.1172 65.375 37.3828 66.1797 37.6875C66.9844 37.9844 67.6797 38.293 68.2656 38.6133C68.8516 38.9258 69.3008 39.3086 69.6133 39.7617C69.9336 40.207 70.0938 40.7812 70.0938 41.4844ZM75.168 26.7656V32.2148C75.168 32.5273 75.1602 32.8438 75.1445 33.1641C75.1289 33.4766 75.1016 33.7656 75.0625 34.0312H75.1914C75.457 33.5781 75.793 33.1992 76.1992 32.8945C76.6133 32.582 77.082 32.3477 77.6055 32.1914C78.1289 32.0273 78.6836 31.9453 79.2695 31.9453C80.3008 31.9453 81.1602 32.1094 81.8477 32.4375C82.543 32.7656 83.0625 33.2734 83.4062 33.9609C83.7578 34.6484 83.9336 35.5391 83.9336 36.6328V45H82.0117V36.7617C82.0117 35.6914 81.7656 34.8906 81.2734 34.3594C80.7891 33.8281 80.043 33.5625 79.0352 33.5625C78.082 33.5625 77.3203 33.7461 76.75 34.1133C76.1875 34.4727 75.7812 35.0039 75.5312 35.707C75.2891 36.4102 75.168 37.2695 75.168 38.2852V45H73.2227V26.7656H75.168ZM89.8867 32.1562V45H87.9414V32.1562H89.8867ZM88.9375 27.3516C89.2578 27.3516 89.5312 27.457 89.7578 27.668C89.9922 27.8711 90.1094 28.1914 90.1094 28.6289C90.1094 29.0586 89.9922 29.3789 89.7578 29.5898C89.5312 29.8008 89.2578 29.9062 88.9375 29.9062C88.6016 29.9062 88.3203 29.8008 88.0938 29.5898C87.875 29.3789 87.7656 29.0586 87.7656 28.6289C87.7656 28.1914 87.875 27.8711 88.0938 27.668C88.3203 27.457 88.6016 27.3516 88.9375 27.3516ZM105.086 38.5547C105.086 39.6094 104.949 40.5508 104.676 41.3789C104.402 42.207 104.008 42.9062 103.492 43.4766C102.977 44.0469 102.352 44.4844 101.617 44.7891C100.891 45.0859 100.066 45.2344 99.1445 45.2344C98.2852 45.2344 97.4961 45.0859 96.7773 44.7891C96.0664 44.4844 95.4492 44.0469 94.9258 43.4766C94.4102 42.9062 94.0078 42.207 93.7188 41.3789C93.4375 40.5508 93.2969 39.6094 93.2969 38.5547C93.2969 37.1484 93.5352 35.9531 94.0117 34.9688C94.4883 33.9766 95.168 33.2227 96.0508 32.707C96.9414 32.1836 98 31.9219 99.2266 31.9219C100.398 31.9219 101.422 32.1836 102.297 32.707C103.18 33.2305 103.863 33.9883 104.348 34.9805C104.84 35.9648 105.086 37.1562 105.086 38.5547ZM95.3125 38.5547C95.3125 39.5859 95.4492 40.4805 95.7227 41.2383C95.9961 41.9961 96.418 42.582 96.9883 42.9961C97.5586 43.4102 98.293 43.6172 99.1914 43.6172C100.082 43.6172 100.812 43.4102 101.383 42.9961C101.961 42.582 102.387 41.9961 102.66 41.2383C102.934 40.4805 103.07 39.5859 103.07 38.5547C103.07 37.5312 102.934 36.6484 102.66 35.9062C102.387 35.1562 101.965 34.5781 101.395 34.1719C100.824 33.7656 100.086 33.5625 99.1797 33.5625C97.8438 33.5625 96.8633 34.0039 96.2383 34.8867C95.6211 35.7695 95.3125 36.9922 95.3125 38.5547ZM114.531 31.9219C116.055 31.9219 117.207 32.2969 117.988 33.0469C118.77 33.7891 119.16 34.9844 119.16 36.6328V45H117.238V36.7617C117.238 35.6914 116.992 34.8906 116.5 34.3594C116.016 33.8281 115.27 33.5625 114.262 33.5625C112.84 33.5625 111.84 33.9648 111.262 34.7695C110.684 35.5742 110.395 36.7422 110.395 38.2734V45H108.449V32.1562H110.02L110.312 34.0078H110.418C110.691 33.5547 111.039 33.1758 111.461 32.8711C111.883 32.5586 112.355 32.3242 112.879 32.168C113.402 32.0039 113.953 31.9219 114.531 31.9219Z" fill="#222222"/>
<path fill-rule="evenodd" clip-rule="evenodd" d="M27 0H0V50H27V0ZM5 27.4608L20.3193 4.71698L16.3169 21.9717H22L6.31451 44.717L10.6821 27.4608H5Z" fill="#222222"/>
</g>
<defs>
<clipPath id="clip0_5_164">
<rect width="123" height="50" fill="white"/>
</clipPath>
</defs>
</svg>
